<mxfile host="app.diagrams.net" modified="2021-10-16T08:58:14.657Z" agent="5.0 (Windows NT 10.0; Win64; x64) AppleWebKit/537.36 (KHTML, like Gecko) Chrome/94.0.4606.81 Safari/537.36" etag="mLJnaIngmZkfOPlIjLz4" version="15.5.2" type="github">
  <diagram id="aFxjDVG99ZnMYboDlP0A" name="Page-1">
    <mxGraphModel dx="2417" dy="852" grid="1" gridSize="10" guides="1" tooltips="1" connect="1" arrows="1" fold="1" page="1" pageScale="1" pageWidth="850" pageHeight="1100" math="0" shadow="0">
      <root>
        <mxCell id="0" />
        <mxCell id="1" parent="0" />
        <mxCell id="kLrMZrprH1Kt1fHp6jiK-3" value="" style="shape=ext;double=1;rounded=1;whiteSpace=wrap;html=1;" vertex="1" parent="1">
          <mxGeometry x="-850" width="770" height="180" as="geometry" />
        </mxCell>
        <mxCell id="kLrMZrprH1Kt1fHp6jiK-11" style="edgeStyle=orthogonalEdgeStyle;rounded=0;orthogonalLoop=1;jettySize=auto;html=1;entryX=0;entryY=0.5;entryDx=0;entryDy=0;entryPerimeter=0;startArrow=none;" edge="1" parent="1" source="kLrMZrprH1Kt1fHp6jiK-12" target="kLrMZrprH1Kt1fHp6jiK-6">
          <mxGeometry relative="1" as="geometry" />
        </mxCell>
        <mxCell id="kLrMZrprH1Kt1fHp6jiK-4" value="" style="shape=actor;whiteSpace=wrap;html=1;" vertex="1" parent="1">
          <mxGeometry x="-830" y="35" width="40" height="60" as="geometry" />
        </mxCell>
        <mxCell id="kLrMZrprH1Kt1fHp6jiK-5" value="Developer" style="text;html=1;strokeColor=none;fillColor=none;align=center;verticalAlign=middle;whiteSpace=wrap;rounded=0;" vertex="1" parent="1">
          <mxGeometry x="-840" y="95" width="60" height="30" as="geometry" />
        </mxCell>
        <mxCell id="kLrMZrprH1Kt1fHp6jiK-14" style="edgeStyle=orthogonalEdgeStyle;rounded=0;orthogonalLoop=1;jettySize=auto;html=1;entryX=0;entryY=0.5;entryDx=0;entryDy=0;startArrow=none;" edge="1" parent="1" source="kLrMZrprH1Kt1fHp6jiK-15" target="kLrMZrprH1Kt1fHp6jiK-10">
          <mxGeometry relative="1" as="geometry" />
        </mxCell>
        <mxCell id="kLrMZrprH1Kt1fHp6jiK-6" value="" style="verticalLabelPosition=bottom;html=1;verticalAlign=top;align=center;strokeColor=none;fillColor=#00BEF2;shape=mxgraph.azure.github_code;pointerEvents=1;" vertex="1" parent="1">
          <mxGeometry x="-620" y="40" width="50" height="50" as="geometry" />
        </mxCell>
        <mxCell id="kLrMZrprH1Kt1fHp6jiK-7" value="GitHub" style="text;html=1;strokeColor=none;fillColor=none;align=center;verticalAlign=middle;whiteSpace=wrap;rounded=0;" vertex="1" parent="1">
          <mxGeometry x="-625" y="90" width="60" height="30" as="geometry" />
        </mxCell>
        <mxCell id="kLrMZrprH1Kt1fHp6jiK-19" style="edgeStyle=orthogonalEdgeStyle;rounded=0;orthogonalLoop=1;jettySize=auto;html=1;entryX=0;entryY=0.5;entryDx=0;entryDy=0;entryPerimeter=0;" edge="1" parent="1" source="kLrMZrprH1Kt1fHp6jiK-10" target="kLrMZrprH1Kt1fHp6jiK-17">
          <mxGeometry relative="1" as="geometry" />
        </mxCell>
        <mxCell id="kLrMZrprH1Kt1fHp6jiK-20" style="edgeStyle=orthogonalEdgeStyle;rounded=0;orthogonalLoop=1;jettySize=auto;html=1;" edge="1" parent="1" source="kLrMZrprH1Kt1fHp6jiK-10" target="kLrMZrprH1Kt1fHp6jiK-18">
          <mxGeometry relative="1" as="geometry" />
        </mxCell>
        <mxCell id="kLrMZrprH1Kt1fHp6jiK-10" value="" style="shape=image;html=1;verticalLabelPosition=bottom;verticalAlign=top;imageAspect=0;image=https://images.g2crowd.com/uploads/product/image/large_detail/large_detail_f12938338549ef6246b98aaa6418267e/circleci.png;" vertex="1" parent="1">
          <mxGeometry x="-425" y="27.5" width="80" height="75" as="geometry" />
        </mxCell>
        <mxCell id="kLrMZrprH1Kt1fHp6jiK-12" value="Commit" style="text;html=1;strokeColor=none;fillColor=none;align=center;verticalAlign=middle;whiteSpace=wrap;rounded=0;" vertex="1" parent="1">
          <mxGeometry x="-740" y="50" width="60" height="30" as="geometry" />
        </mxCell>
        <mxCell id="kLrMZrprH1Kt1fHp6jiK-13" value="" style="edgeStyle=orthogonalEdgeStyle;rounded=0;orthogonalLoop=1;jettySize=auto;html=1;entryX=0;entryY=0.5;entryDx=0;entryDy=0;entryPerimeter=0;endArrow=none;" edge="1" parent="1" source="kLrMZrprH1Kt1fHp6jiK-4" target="kLrMZrprH1Kt1fHp6jiK-12">
          <mxGeometry relative="1" as="geometry">
            <mxPoint x="-790" y="65" as="sourcePoint" />
            <mxPoint x="-620" y="65" as="targetPoint" />
          </mxGeometry>
        </mxCell>
        <mxCell id="kLrMZrprH1Kt1fHp6jiK-15" value="Trigger" style="text;html=1;strokeColor=none;fillColor=none;align=center;verticalAlign=middle;whiteSpace=wrap;rounded=0;" vertex="1" parent="1">
          <mxGeometry x="-530" y="50" width="60" height="30" as="geometry" />
        </mxCell>
        <mxCell id="kLrMZrprH1Kt1fHp6jiK-16" value="" style="edgeStyle=orthogonalEdgeStyle;rounded=0;orthogonalLoop=1;jettySize=auto;html=1;entryX=0;entryY=0.5;entryDx=0;entryDy=0;endArrow=none;" edge="1" parent="1" source="kLrMZrprH1Kt1fHp6jiK-6" target="kLrMZrprH1Kt1fHp6jiK-15">
          <mxGeometry relative="1" as="geometry">
            <mxPoint x="-570" y="65" as="sourcePoint" />
            <mxPoint x="-425" y="65" as="targetPoint" />
          </mxGeometry>
        </mxCell>
        <mxCell id="kLrMZrprH1Kt1fHp6jiK-17" value="" style="outlineConnect=0;dashed=0;verticalLabelPosition=bottom;verticalAlign=top;align=center;html=1;shape=mxgraph.aws3.s3;fillColor=#E05243;gradientColor=none;" vertex="1" parent="1">
          <mxGeometry x="-210" y="10" width="60" height="61" as="geometry" />
        </mxCell>
        <mxCell id="kLrMZrprH1Kt1fHp6jiK-18" value="" style="sketch=0;outlineConnect=0;fontColor=#232F3E;gradientColor=none;fillColor=#FF9900;strokeColor=none;dashed=0;verticalLabelPosition=bottom;verticalAlign=top;align=center;html=1;fontSize=12;fontStyle=0;aspect=fixed;pointerEvents=1;shape=mxgraph.aws4.application;" vertex="1" parent="1">
          <mxGeometry x="-210" y="102.5" width="31" height="48" as="geometry" />
        </mxCell>
        <mxCell id="kLrMZrprH1Kt1fHp6jiK-21" value="S3 Bucket" style="text;html=1;strokeColor=none;fillColor=none;align=center;verticalAlign=middle;whiteSpace=wrap;rounded=0;" vertex="1" parent="1">
          <mxGeometry x="-210" y="65" width="60" height="30" as="geometry" />
        </mxCell>
        <mxCell id="kLrMZrprH1Kt1fHp6jiK-22" value="Elastic Beanstalk" style="text;html=1;strokeColor=none;fillColor=none;align=center;verticalAlign=middle;whiteSpace=wrap;rounded=0;" vertex="1" parent="1">
          <mxGeometry x="-224.5" y="140" width="84.5" height="30" as="geometry" />
        </mxCell>
        <mxCell id="kLrMZrprH1Kt1fHp6jiK-23" value="Deploy" style="text;html=1;strokeColor=none;fillColor=none;align=center;verticalAlign=middle;whiteSpace=wrap;rounded=0;" vertex="1" parent="1">
          <mxGeometry x="-340" y="40" width="60" height="30" as="geometry" />
        </mxCell>
      </root>
    </mxGraphModel>
  </diagram>
</mxfile>
